<svg xmlns="http://www.w3.org/2000/svg" width="16" height="16" viewBox="0 0 16 16" fill="#f0f0ff">
  <path fill-rule="evenodd" d="M8 1.2a6.8 6.8 0 00-2.15 13.25c.34.06.47-.15.47-.33v-1.2c-1.92.42-2.33-.93-2.33-.93-.31-.8-.77-1.01-.77-1.01-.63-.43.05-.42.05-.42.7.05 1.07.72 1.07.72.62 1.07 1.63.76 2.03.58.06-.45.24-.76.44-.94-1.53-.17-3.14-.77-3.14-3.43 0-.76.27-1.38.72-1.87-.07-.17-.31-.87.07-1.81 0 0 .59-.19 1.93.71a6.6 6.6 0 013.52 0c1.34-.9 1.93-.71 1.93-.71.38.94.14 1.64.07 1.81.45.49.72 1.1.72 1.87 0 2.67-1.62 3.26-3.16 3.42.25.22.47.65.47 1.31v1.94c0 .18.13.4.48.33A6.8 6.8 0 008 1.2z"/>
</svg>
